<?xml version="1.0" encoding="UTF-8" standalone="no"?>
<svg
   viewBox="1 -35 511.99993 511"
   version="1.1"
   id="svg1949"
   xmlns="http://www.w3.org/2000/svg"
   xmlns:svg="http://www.w3.org/2000/svg">
  <defs
     id="defs1953" />
  <g
     id="g3594">
    <path
       d="m121.453125 253.171875 63.554687 158.886719 82.75-82.753906 141.535157 112.503906 102.707031-441.308594-512 205.480469zm-39.933594-47.640625 244.046875-97.945312-194.074218 117.363281zm287.535157-89.25-161.980469 148.1875-19.484375 73.425781-36.035156-90.085937zm-149.851563 219.230469 9.816406-36.996094 15.144531 12.035156zm171.65625 53.394531-147.386719-117.152344 221.902344-203.007812zm0 0"
       id="path1947" />
    <path
       style="fill:#000000;stroke:none;stroke-width:20;paint-order:markers fill stroke"
       id="path2383"
       d="M 82.279661,272.82203 18.860619,237.98364 80.741072,200.48034 Z"
       transform="matrix(-5.8305879,2.4775075,-0.22833885,-0.53737466,603.81327,142.75892)" />
    <path
       style="fill:#000000;stroke:none;stroke-width:20;paint-order:markers fill stroke"
       id="path2748"
       d="M 82.279661,272.82203 18.860619,237.98364 80.741072,200.48034 Z"
       transform="matrix(-5.8305879,2.4775075,-0.22833885,-0.53737466,627.63107,147.08943)" />
    <path
       style="fill:#000000;stroke:none;stroke-width:20;paint-order:markers fill stroke"
       id="path3582"
       d="M 77.949158,465.52966 174.15587,80.866039 459.18099,356.51531 Z"
       transform="matrix(-0.51798058,-0.04437691,-0.16535539,0.72014959,523.76668,47.556383)" />
    <path
       style="fill:#000000;stroke:none;stroke-width:20;paint-order:markers fill stroke"
       id="path3584"
       d="M 77.949158,465.52966 174.15587,80.866039 459.18099,356.51531 Z"
       transform="matrix(-0.49492554,-0.15912858,-0.32226782,0.66490698,581.76583,120.62079)" />
    <path
       style="fill:#000000;stroke:none;stroke-width:20;paint-order:markers fill stroke"
       id="path3586"
       d="M 77.949158,465.52966 174.15587,80.866039 459.18099,356.51531 Z"
       transform="matrix(-0.41356577,-0.11738818,-0.19057821,0.68804446,557.70755,-3.4194451)" />
  </g>
</svg>
